PathFileType	4	(X/Y/Z)	./resultDataOpenSim/trcMotMarkerGrf/sub06/qtm-14-07.trc
DataRate	CameraRate	NumFrames	NumMarkers	Units	OrigDataRate	OrigDataStartFrame	OrigNumFrames
250.000000	250.000000	13	24	m	250.000000	264	527
Frame#	Time	L.Toe.Tip			R.Toe.Tip			L.Ankle.Lat			R.Ankle.Lat			L.Ankle.Med			R.Ankle.Med			L.Heel			R.Heel			L.Knee.Lat			R.Knee.Lat			L.Knee.Med			R.Knee.Med			L.Thigh.Upper			R.Thigh.Upper			L.ASIS			R.ASIS			V.Sacral			L.Acromium			R.Acromium			C7			L.Elbow			R.Elbow			L.Wrist.Lat			R.Wrist.Lat
		X1	Y1	Z1	X2	Y2	Z2	X3	Y3	Z3	X4	Y4	Z4	X5	Y5	Z5	X6	Y6	Z6	X7	Y7	Z7	X8	Y8	Z8	X9	Y9	Z9	X10	Y10	Z10	X11	Y11	Z11	X12	Y12	Z12	X13	Y13	Z13	X14	Y14	Z14	X15	Y15	Z15	X16	Y16	Z16	X17	Y17	Z17	X18	Y18	Z18	X19	Y19	Z19	X20	Y20	Z20	X21	Y21	Z21	X22	Y22	Z22	X23	Y23	Z23	X24	Y24	Z24

264	1.052	0.11102465	-0.040116728	0.0019830982	0.72977521	0.096060367	0.15028659	0.0089762736	0.026995165	-0.047149686	0.59259464	0.095291766	0.16228413	0.0042148224	0.049223816	0.036291038	0.61393044	0.12557284	0.077876708	-0.072082093	0.024754036	-0.010534788	0.55047544	0.064763456	0.094647238	0.15444643	0.37401058	-0.068751441	0.54090442	0.48267568	0.18274649	0.13030429	0.38195607	0.05140591	0.53082648	0.46328922	0.057729094	0.25818051	0.74130672	-0.14411515	0.29620369	0.76196201	0.20731675	0.34450541	0.78519028	-0.10707153	0.37264775	0.80633638	0.13764629	0.17653173	0.87744177	0.032982093	0.34527819	1.282558	-0.14993571	0.29756501	1.2663678	0.20537895	0.25124405	1.3118534	0.016039297	0.37479229	0.97018493	-0.25134385	0.12530165	1.0046833	0.24261586	0.60604291	0.87477662	-0.21118306	0.14420782	0.77908613	0.32268271
265	1.056	0.11110699	-0.04013332	0.0020272461	0.74625534	0.097667775	0.14790646	0.0098331039	0.027820731	-0.04715189	0.60883047	0.095339004	0.16057432	0.0053596765	0.049976423	0.036276439	0.62938044	0.12617502	0.076132319	-0.071177977	0.026324216	-0.010466393	0.56698556	0.064554668	0.092912329	0.15834363	0.37358109	-0.068653669	0.54844583	0.48121047	0.18147725	0.13455244	0.38167168	0.051599966	0.53785973	0.46209118	0.056975298	0.2632844	0.74010126	-0.14404508	0.30441694	0.76068966	0.20748653	0.35020151	0.78371586	-0.10766207	0.38006936	0.8052348	0.13733428	0.18327314	0.87631472	0.033947018	0.35237987	1.2813181	-0.14983774	0.30466641	1.264797	0.20567716	0.25833417	1.3108917	0.016283654	0.38491492	0.96925415	-0.25206751	0.13163638	1.0038363	0.24266711	0.61641574	0.87685668	-0.20941188	0.14910442	0.77822391	0.32320519
266	1.06	0.11118354	-0.040146881	0.0020512043	0.7620719	0.099356652	0.14539557	0.010742603	0.028668739	-0.047149455	0.62439424	0.095464722	0.15876238	0.0065800836	0.050759557	0.036287684	0.64416232	0.12676476	0.074320205	-0.070245477	0.027936421	-0.01037686	0.58281522	0.064335662	0.091184304	0.16241061	0.37308949	-0.068557162	0.55597016	0.47966387	0.18012941	0.13907016	0.38133812	0.051756747	0.54484331	0.46080789	0.056139406	0.26844676	0.73888127	-0.14386186	0.31272621	0.75943695	0.20771194	0.35593928	0.78223917	-0.1082241	0.38756571	0.80416357	0.13703465	0.19012879	0.87513891	0.034859094	0.35951182	1.2800532	-0.14974693	0.31177861	1.2631982	0.20598112	0.26547315	1.3098659	0.016538449	0.3950402	0.9681678	-0.25275404	0.13801852	1.0029224	0.24273876	0.62668724	0.8788532	-0.20764196	0.15420652	0.77734377	0.3237611
267	1.064	0.11125873	-0.040163133	0.002072275	0.77715921	0.1011092	0.14276172	0.011704922	0.029542405	-0.047170936	0.63927345	0.095594891	0.15684551	0.0078612647	0.051591769	0.036323219	0.65823813	0.12728671	0.072458004	-0.069263056	0.029598274	-0.010297269	0.59794471	0.064034655	0.089479461	0.16663569	0.37255782	-0.068466268	0.56349294	0.47804963	0.17870498	0.14382327	0.38095203	0.051887372	0.55195813	0.45950453	0.055058761	0.27366606	0.73763601	-0.14358291	0.32099827	0.75816159	0.20791016	0.36173475	0.78077582	-0.10874803	0.39516177	0.80313596	0.13675178	0.19702761	0.87393017	0.035752843	0.3666692	1.2787685	-0.14965257	0.3189043	1.2615795	0.20629111	0.27265236	1.3087665	0.01681852	0.40442688	0.96702218	-0.25307716	0.1444718	1.0019155	0.24282962	0.63685518	0.88076729	-0.20587583	0.15952013	0.77644639	0.32434619
268	1.068	0.11133492	-0.040186324	0.0021058591	0.79147381	0.10288368	0.14001757	0.012718923	0.030441685	-0.047241751	0.65349828	0.095625951	0.15481121	0.0091877523	0.052469947	0.036354074	0.67158346	0.12771624	0.070524424	-0.068214589	0.031323929	-0.01025674	0.61235415	0.063610514	0.087779286	0.17100501	0.37200215	-0.068376275	0.57107747	0.47640528	0.17725727	0.14871075	0.3804969	0.052051092	0.55925878	0.45820421	0.053731636	0.27895344	0.73636394	-0.14324427	0.32917683	0.7568438	0.20804159	0.36760215	0.7793422	-0.10922447	0.40281522	0.8021343	0.13645607	0.20392084	0.87271678	0.036633594	0.37384692	1.2774745	-0.14954616	0.32604539	1.2599547	0.20660979	0.27985478	1.307613	0.017121623	0.41296521	0.96594936	-0.25286359	0.15099867	1.0008252	0.24293567	0.64692123	0.88260209	-0.2041123	0.1649714	0.77551968	0.32494744
269	1.072	0.11141182	-0.040217691	0.0021584549	0.80499928	0.10459973	0.1371799	0.013791718	0.031366803	-0.047365888	0.66709077	0.095482089	0.15264935	0.010549911	0.053376083	0.036343533	0.68419789	0.12803484	0.068482817	-0.067083643	0.033132154	-0.0102707	0.6260083	0.063081373	0.086013444	0.17549947	0.37142751	-0.06828646	0.57877863	0.4747755	0.17583687	0.15366989	0.37995547	0.05228333	0.56669528	0.45689432	0.05225113	0.28433047	0.73507969	-0.14288094	0.33729382	0.75549877	0.20811436	0.37355135	0.77795346	-0.10965123	0.41049333	0.80114433	0.13612286	0.21078678	0.87153042	0.037470518	0.38104163	1.2761823	-0.14942457	0.33320046	1.2583362	0.20693885	0.28706692	1.3064313	0.017443111	0.42107655	0.96499265	-0.25219847	0.15758937	0.9996787	0.24305362	0.6568885	0.88435941	-0.20234944	0.17047002	0.77455326	0.32555149
270	1.076	0.11148978	-0.040251896	0.0022267626	0.81774112	0.10614123	0.13426765	0.01493256	0.032319384	-0.047527852	0.68001763	0.095162156	0.15036771	0.011956253	0.054305834	0.036277714	0.69610446	0.12821224	0.066319011	-0.065853171	0.035037544	-0.010340893	0.63887069	0.062495231	0.084105172	0.18010091	0.37083157	-0.068198447	0.58659361	0.47319716	0.17444997	0.15877297	0.37933539	0.052533326	0.57420932	0.4555608	0.050696209	0.28981287	0.73380023	-0.14250491	0.34540596	0.75415045	0.20814889	0.37959214	0.77662676	-0.11003161	0.41819653	0.80016339	0.13574741	0.21763895	0.87036399	0.038263245	0.38824738	1.2749006	-0.14928803	0.34036582	1.2567274	0.20727554	0.29428295	1.3052389	0.01777767	0.42980114	0.96400387	-0.25150212	0.16423829	0.99849719	0.24318278	0.66675899	0.88603844	-0.20058695	0.17599421	0.7735508	0.32615431
271	1.08	0.11157356	-0.040276716	0.0023009864	0.82971217	0.10738682	0.13129989	0.016151544	0.033303587	-0.047711891	0.69218052	0.094729179	0.14799785	0.013435355	0.055270324	0.036166349	0.70733575	0.12822495	0.06405213	-0.064513187	0.037032054	-0.010471372	0.65092651	0.06187301	0.082034543	0.18479624	0.37020939	-0.068102963	0.59447458	0.47169726	0.17307646	0.16414395	0.37866078	0.052717864	0.58177337	0.45420595	0.04910307	0.29540649	0.73253118	-0.1421067	0.35354904	0.75280435	0.20815502	0.38573826	0.77537846	-0.11036833	0.42594433	0.79918911	0.13534081	0.22453038	0.86917148	0.039059432	0.39545855	1.2736364	-0.14913278	0.34754252	1.2551254	0.20761738	0.30150597	1.3040477	0.018123446	0.4401892	0.96274463	-0.25125289	0.17094842	0.99729125	0.24332477	0.6765315	0.88763633	-0.1988275	0.1815806	0.77252307	0.3267588
272	1.084	0.11166924	-0.040281748	0.0023703168	0.84091913	0.10824028	0.12829696	0.017457721	0.034329956	-0.047915089	0.70340819	0.094283391	0.14559999	0.015014304	0.056280299	0.036021698	0.71791838	0.12806468	0.061715925	-0.06306444	0.039094035	-0.010665647	0.66218104	0.061198307	0.079832062	0.18957637	0.36955846	-0.067988539	0.60238433	0.47029098	0.17169043	0.16981363	0.3779427	0.052809177	0.58938173	0.4528455	0.047478726	0.30111447	0.73127226	-0.141675	0.36173981	0.75145981	0.20812976	0.39200343	0.77421449	-0.11066412	0.43376396	0.79821261	0.13492386	0.23153012	0.86793363	0.039875625	0.40267556	1.2723955	-0.14895136	0.35473686	1.2535313	0.2079674	0.30874599	1.3028717	0.018485828	0.4518751	0.96118215	-0.25149881	0.17772413	0.99606743	0.24348235	0.6862025	0.88915098	-0.19707472	0.18727152	0.77147767	0.32736613
273	1.088	0.11177841	-0.040267584	0.0024285056	0.85136576	0.10863497	0.12527923	0.018851885	0.035408243	-0.048149519	0.71343217	0.093968798	0.14326795	0.016701287	0.057341618	0.035841905	0.72786655	0.1277218	0.059333918	-0.061516489	0.041218556	-0.010909189	0.67264983	0.060441596	0.077527674	0.19445899	0.36887736	-0.067867833	0.61033583	0.46897494	0.17025462	0.17571588	0.37717365	0.05283812	0.59703392	0.45149809	0.045818879	0.30693888	0.73002764	-0.14121046	0.36998913	0.75012762	0.20806369	0.39839415	0.77312892	-0.11092779	0.44168912	0.79722356	0.13452239	0.23871019	0.8666757	0.040662378	0.40990127	1.271185	-0.14873992	0.36195325	1.2519538	0.20832922	0.31601375	1.3017217	0.0188742	0.4630617	0.95963021	-0.25185411	0.18456502	0.9948334	0.24365632	0.69577028	0.89058429	-0.19533114	0.19309175	0.77041965	0.32797379
274	1.092	0.11189768	-0.040242069	0.0024749139	0.86106671	0.1085284	0.12226759	0.020332298	0.036531186	-0.048438922	0.72206918	0.093866514	0.14106888	0.018491511	0.058455327	0.035607869	0.73718555	0.12718189	0.056912423	-0.059878354	0.043421402	-0.011172502	0.68235496	0.059571771	0.075127645	0.19951198	0.36815743	-0.067784537	0.61836453	0.46772786	0.16873804	0.18177484	0.37634442	0.052844408	0.60472454	0.45017973	0.044121213	0.31288093	0.728805	-0.14072376	0.37830556	0.74882627	0.20794987	0.40489556	0.77211334	-0.11117061	0.44974003	0.79621172	0.13414952	0.24614666	0.86540646	0.041386443	0.4171358	1.2700131	-0.14849689	0.36919072	1.2504047	0.20870211	0.32331084	1.3005923	0.019294627	0.47237632	0.95845914	-0.25196301	0.19146867	0.99359774	0.24384376	0.70523865	0.89193682	-0.19360165	0.19904286	0.76935467	0.3285804
275	1.096	0.11202276	-0.040209885	0.0025119986	0.87005414	0.10790362	0.11928418	0.02190692	0.037681182	-0.048799928	0.72960384	0.093762224	0.13892675	0.020381738	0.059616316	0.035298772	0.74588274	0.12642604	0.054449315	-0.058148069	0.045717258	-0.01143532	0.69131941	0.058555156	0.072627655	0.2048116	0.36738578	-0.067783893	0.62647408	0.46652045	0.16714736	0.18795524	0.37545741	0.052843504	0.61244359	0.44890073	0.042394953	0.31894642	0.72761162	-0.14022379	0.3867112	0.74757881	0.20780067	0.41144853	0.77116618	-0.11138757	0.4578624	0.7951611	0.13376521	0.25388097	0.86410307	0.042093852	0.4243789	1.2688857	-0.14821414	0.37644692	1.2488939	0.20908655	0.33063158	1.2994541	0.019746524	0.47996094	0.9577335	-0.25177441	0.19843242	0.99236549	0.24404114	0.71461754	0.8932002	-0.1918946	0.20512116	0.76828912	0.32918786
276	1.1	0.11215134	-0.040167822	0.0025453609	0.8783698	0.10677054	0.11634093	0.023597617	0.038853614	-0.049226518	0.73677045	0.093179152	0.13663035	0.022382249	0.060817663	0.034913287	0.75397941	0.12541651	0.051937752	-0.056308931	0.048104893	-0.011710514	0.69956745	0.05736025	0.070034806	0.21037974	0.36655891	-0.067882193	0.63463429	0.46532282	0.16551432	0.19426058	0.37452547	0.052824172	0.62017644	0.44766178	0.040661547	0.32514303	0.72645501	-0.1397135	0.39526869	0.74641729	0.20766788	0.4179576	0.7702922	-0.11154934	0.46595448	0.79406908	0.1332915	0.26185134	0.86277325	0.04284821	0.43163348	1.2678058	-0.14787963	0.38372515	1.2474269	0.20948869	0.33798339	1.2982677	0.020234247	0.48670804	0.95725834	-0.25143236	0.20544301	0.99113791	0.2442503	0.72391359	0.89436571	-0.19021362	0.21133807	0.76722978	0.32979761
